<svg width="350" height="67" viewBox="0 0 350 67" fill="none" xmlns="http://www.w3.org/2000/svg">
<g clip-path="url(#clip0_1_2)">
<path d="M7.45 51H30.29V45.12H7.45V36.1H35.34V29.89H0V66.12H35.39V59.9H7.45V51Z" fill="#D2E090"/>
<path d="M57.07 29.89H49.62V66.12H81.15V59.9H57.07V29.89Z" fill="#D2E090"/>
<path d="M105.1 59.52L92.67 29.89H84.44L100.46 66.12H109.75L125.6 29.89H117.48L105.1 59.52Z" fill="#D2E090"/>
<path d="M150.29 29.89L134.45 66.12H142.56L154.94 36.49L167.37 66.12H175.6L159.59 29.89H150.29Z" fill="#D2E090"/>
<path d="M184.59 36.1H199.99V66.12H207.44V36.1H222.78V29.89H184.59V36.1Z" fill="#D2E090"/>
<path d="M241.04 29.89H233.59V66.12H241.04V29.89Z" fill="#D2E090"/>
<path d="M291.36 66.12L275.94 47.68L291.19 29.89H282.12L271.79 42.57L261.68 29.89H252.61L267.49 47.74L252.05 66.12H261.12L271.65 52.85L281.9 66.12H291.36Z" fill="#D2E090"/>
<path d="M330.62 36.94C320.44 36.94 312.15 28.65 312.15 18.47C312.15 8.29 320.44 0 330.62 0C340.8 0 349.09 8.29 349.09 18.47C349.09 28.65 340.8 36.94 330.62 36.94ZM330.62 5.5C323.47 5.5 317.65 11.32 317.65 18.47C317.65 25.62 323.47 31.44 330.62 31.44C337.77 31.44 343.59 25.62 343.59 18.47C343.59 11.32 337.77 5.5 330.62 5.5Z" fill="#D2E090"/>
<path d="M330.66 55.74C324.02 55.74 317.77 53.15 313.08 48.46L316.97 44.57C320.63 48.23 325.49 50.24 330.66 50.24C335.83 50.24 340.7 48.23 344.36 44.57L348.25 48.46C343.55 53.16 337.31 55.74 330.67 55.74H330.66Z" fill="#D2E090"/>
</g>
<defs>
<clipPath id="clip0_1_2">
<rect width="349.09" height="66.12" fill="white"/>
</clipPath>
</defs>
</svg>
