<svg viewBox="0 0 560 90" xmlns="http://www.w3.org/2000/svg">
  <g fill="#2D2D2D">
    <!-- E -->
    <path d="M0 8h50v11H13v21h33v11H13v23h37v11H0V8z"/>
    <!-- L -->
    <path d="M62 8h13v67h35v11H62V8z"/>
    <!-- V -->
    <path d="M120 8h14l27 60 27-60h14l-34 78h-14L120 8z"/>
    <!-- A -->
    <path d="M214 8h13l35 78h-14l-8-18h-39l-8 18h-14L214 8zm-3 49h29l-14.5-34L211 57z"/>
    <!-- T -->
    <path d="M270 8h62v11h-24v67h-14V19h-24V8z"/>
    <!-- I -->
    <path d="M342 8h13v78h-13V8z"/>
    <!-- X -->
    <path d="M367 8h15l24 36 24-36h15l-31 41 33 37h-15l-26-30-26 30h-15l33-37L367 8z"/>
  </g>
  <!-- Circle icon (top right) -->
  <circle cx="498" cy="26" r="20" stroke="#2D2D2D" stroke-width="7.5" fill="none"/>
  <!-- Dot -->
  <circle cx="498" cy="62" r="6" fill="#2D2D2D"/>
  <!-- Smile curve -->
  <path d="M485 68 Q490 82 498 82 Q506 82 511 68" stroke="#2D2D2D" stroke-width="6" stroke-linecap="round" fill="none"/>
</svg>
